<svg width="120" height="36" viewBox="0 0 120 36" fill="none" xmlns="http://www.w3.org/2000/svg">
<path d="M41.92 15.38C41.3867 15.6867 40.8 15.92 40.16 16.08C39.5333 16.2533 38.8533 16.34 38.12 16.34C36.9867 16.34 35.9667 16.1467 35.06 15.76C34.1667 15.3733 33.4 14.8333 32.76 14.14C32.1333 13.4467 31.6467 12.6267 31.3 11.68C30.9667 10.7333 30.8 9.70667 30.8 8.6C30.8 7.48 30.9667 6.44667 31.3 5.5C31.6467 4.55333 32.1333 3.74 32.76 3.06C33.4 2.36667 34.1667 1.82667 35.06 1.44C35.9667 1.04 36.9867 0.84 38.12 0.84C39.24 0.84 40.2533 1.04 41.16 1.44C42.0667 1.82667 42.8333 2.36667 43.46 3.06C44.0867 3.74 44.5667 4.55333 44.9 5.5C45.2467 6.44667 45.42 7.48 45.42 8.6C45.42 9.73333 45.2467 10.7733 44.9 11.72C44.5667 12.6533 44.08 13.4667 43.44 14.16L45.4 15.86L44.12 17.28L41.92 15.38ZM38.12 14.06C38.8133 14.06 39.4333 13.94 39.98 13.7L38.14 12.08L39.4 10.64L41.5 12.48C41.86 11.9867 42.1267 11.4133 42.3 10.76C42.4867 10.1067 42.58 9.38667 42.58 8.6C42.58 7.82667 42.4867 7.10667 42.3 6.44C42.1133 5.77333 41.8333 5.19333 41.46 4.7C41.0867 4.20667 40.62 3.82 40.06 3.54C39.5 3.26 38.8533 3.12 38.12 3.12C37.3733 3.12 36.72 3.26 36.16 3.54C35.6 3.82 35.1333 4.20667 34.76 4.7C34.3867 5.19333 34.1 5.77333 33.9 6.44C33.7133 7.10667 33.62 7.82667 33.62 8.6C33.62 9.37333 33.7133 10.0933 33.9 10.76C34.1 11.4267 34.3867 12.0067 34.76 12.5C35.1333 12.98 35.6 13.36 36.16 13.64C36.72 13.92 37.3733 14.06 38.12 14.06ZM53.4509 16V14.48H53.4109C53.0243 15.0667 52.5776 15.5133 52.0709 15.82C51.5776 16.1267 50.9509 16.28 50.1909 16.28C49.0176 16.28 48.1043 15.9467 47.4509 15.28C46.8109 14.6 46.4909 13.68 46.4909 12.52V5.32H49.0309V12.16C49.0309 12.8 49.2043 13.2933 49.5509 13.64C49.8976 13.9867 50.3909 14.16 51.0309 14.16C51.7509 14.16 52.3243 13.92 52.7509 13.44C53.1776 12.9467 53.3909 12.3267 53.3909 11.58V5.32H55.9109V16H53.4509ZM64.3511 16C64.2578 15.88 64.1778 15.7133 64.1111 15.5C64.0578 15.2733 64.0178 14.98 63.9911 14.62H63.9511C63.6044 15.0867 63.1711 15.48 62.6511 15.8C62.1311 16.1067 61.4444 16.26 60.5911 16.26C60.0711 16.26 59.5844 16.1933 59.1311 16.06C58.6911 15.9267 58.3111 15.7267 57.9911 15.46C57.6711 15.1933 57.4178 14.8667 57.2311 14.48C57.0444 14.08 56.9511 13.62 56.9511 13.1C56.9511 12.5 57.0578 12.0067 57.2711 11.62C57.4978 11.22 57.8044 10.9 58.1911 10.66C58.5778 10.42 59.0378 10.24 59.5711 10.12C60.1044 9.98667 60.6911 9.88 61.3311 9.8C62.2111 9.69333 62.8711 9.54667 63.3111 9.36C63.7511 9.16 63.9711 8.82 63.9711 8.34C63.9711 7.87333 63.8111 7.5 63.4911 7.22C63.1711 6.94 62.6911 6.8 62.0511 6.8C61.3311 6.8 60.7911 6.95333 60.4311 7.26C60.0844 7.56667 59.8978 7.98667 59.8711 8.52H57.4711C57.4844 8.06667 57.5844 7.63333 57.7711 7.22C57.9711 6.79333 58.2578 6.42 58.6311 6.1C59.0178 5.78 59.4911 5.52667 60.0511 5.34C60.6111 5.14 61.2711 5.04 62.0311 5.04C62.6444 5.04 63.1844 5.08667 63.6511 5.18C64.1311 5.27333 64.5444 5.43333 64.8911 5.66C65.9044 6.27333 66.4111 7.28667 66.4111 8.7V14.32C66.4111 14.76 66.4444 15.1 66.5111 15.34C66.5911 15.58 66.6911 15.74 66.8111 15.82V16H64.3511ZM61.3311 14.52C61.7711 14.52 62.1578 14.4533 62.4911 14.32C62.8244 14.1733 63.1044 13.9933 63.3311 13.78C63.5578 13.5533 63.7311 13.3 63.8511 13.02C63.9711 12.7267 64.0311 12.4267 64.0311 12.12V10.54C63.7778 10.7 63.4644 10.84 63.0911 10.96C62.7178 11.0667 62.3378 11.16 61.9511 11.24C61.1644 11.3867 60.5578 11.58 60.1311 11.82C59.7044 12.0467 59.4911 12.4533 59.4911 13.04C59.4911 13.32 59.5378 13.56 59.6311 13.76C59.7378 13.9467 59.8711 14.1 60.0311 14.22C60.2044 14.3267 60.4044 14.4067 60.6311 14.46C60.8578 14.5 61.0911 14.52 61.3311 14.52ZM70.4392 6.88H70.4992C70.8459 6.28 71.2926 5.82667 71.8392 5.52C72.3992 5.2 73.0592 5.04 73.8192 5.04C74.9792 5.04 75.8792 5.37333 76.5192 6.04C77.1726 6.69333 77.4992 7.6 77.4992 8.76V16H74.9592V9.18C74.9592 8.54 74.7792 8.04 74.4192 7.68C74.0726 7.32 73.5726 7.14 72.9192 7.14C72.5592 7.14 72.2326 7.20667 71.9392 7.34C71.6459 7.46 71.3926 7.64 71.1792 7.88C70.9659 8.10667 70.7992 8.38 70.6792 8.7C70.5592 9.02 70.4992 9.36667 70.4992 9.74V16H67.9592V5.32H70.4392V6.88ZM78.1012 5.32H79.7412V1.92H82.2412V5.32H84.3812V7.06H82.2412V13.04C82.2412 13.4267 82.3412 13.6933 82.5412 13.84C82.7412 13.9733 83.0212 14.04 83.3812 14.04C83.5146 14.04 83.6546 14.0333 83.8012 14.02C83.9612 14.0067 84.0946 13.9867 84.2012 13.96H84.3212V15.94C84.1079 15.98 83.8612 16.0133 83.5812 16.04C83.3012 16.08 82.9879 16.1 82.6412 16.1C82.2146 16.1 81.8212 16.06 81.4612 15.98C81.1012 15.8867 80.7946 15.7467 80.5412 15.56C80.2879 15.36 80.0879 15.1 79.9412 14.78C79.8079 14.46 79.7412 14.0667 79.7412 13.6V7.06H78.1012V5.32ZM92.2431 16V14.48H92.2031C91.8165 15.0667 91.3698 15.5133 90.8631 15.82C90.3698 16.1267 89.7431 16.28 88.9831 16.28C87.8098 16.28 86.8965 15.9467 86.2431 15.28C85.6031 14.6 85.2831 13.68 85.2831 12.52V5.32H87.8231V12.16C87.8231 12.8 87.9965 13.2933 88.3431 13.64C88.6898 13.9867 89.1831 14.16 89.8231 14.16C90.5431 14.16 91.1165 13.92 91.5431 13.44C91.9698 12.9467 92.1831 12.3267 92.1831 11.58V5.32H94.7031V16H92.2431ZM96.2233 5.32H98.6833V6.94H98.7433C99.0899 6.34 99.5233 5.87333 100.043 5.54C100.577 5.20667 101.21 5.04 101.943 5.04C102.623 5.04 103.203 5.20667 103.683 5.54C104.177 5.87333 104.543 6.37333 104.783 7.04H104.823C105.25 6.34667 105.75 5.84 106.323 5.52C106.897 5.2 107.517 5.04 108.183 5.04C109.277 5.04 110.123 5.37333 110.723 6.04C111.337 6.69333 111.643 7.6 111.643 8.76V16H109.103V9.1C109.103 8.48667 108.943 8.00667 108.623 7.66C108.303 7.31333 107.883 7.14 107.363 7.14C106.737 7.14 106.217 7.37333 105.803 7.84C105.403 8.30667 105.203 8.92 105.203 9.68V16H102.663V9.1C102.663 8.48667 102.517 8.00667 102.223 7.66C101.93 7.31333 101.517 7.14 100.983 7.14C100.69 7.14 100.41 7.20667 100.143 7.34C99.8766 7.46 99.6366 7.63333 99.4233 7.86C99.2233 8.07333 99.0633 8.34 98.9433 8.66C98.8233 8.96667 98.7633 9.30667 98.7633 9.68V16H96.2233V5.32ZM31.4 19.12H37.84C38.68 19.12 39.4133 19.24 40.04 19.48C40.68 19.72 41.2067 20.0667 41.62 20.52C42.02 20.9467 42.3267 21.4333 42.54 21.98C42.7667 22.5133 42.88 23.1133 42.88 23.78C42.88 24.4867 42.7667 25.1267 42.54 25.7C42.3267 26.26 42.0067 26.74 41.58 27.14C41.1667 27.54 40.6533 27.8533 40.04 28.08C39.44 28.2933 38.7467 28.4 37.96 28.4H34.2V34H31.4V19.12ZM34.2 26.18H37.52C38.3733 26.18 39.0133 25.9667 39.44 25.54C39.88 25.1133 40.1 24.54 40.1 23.82C40.1 23.06 39.88 22.4867 39.44 22.1C39 21.7 38.3733 21.5 37.56 21.5H34.2V26.18ZM43.6794 19.12H46.2794V21.58H43.6794V19.12ZM43.7194 23.32H46.2594V34H43.7194V23.32ZM50.8431 28.4L47.3831 23.32H50.3031L51.3631 25C51.4698 25.1867 51.5765 25.3933 51.6831 25.62C51.8031 25.8333 51.9165 26.0333 52.0231 26.22C52.1431 26.4467 52.2565 26.6733 52.3631 26.9H52.4031C52.5098 26.6733 52.6231 26.4467 52.7431 26.22C52.8498 26.0333 52.9565 25.8333 53.0631 25.62C53.1831 25.3933 53.2965 25.1867 53.4031 25L54.4831 23.32H57.2031L53.8231 28.28L57.7431 34H54.8031L53.4031 31.86C53.2831 31.6733 53.1565 31.4667 53.0231 31.24C52.9031 31 52.7898 30.7733 52.6831 30.56C52.5498 30.32 52.4298 30.08 52.3231 29.84H52.2831C52.1631 30.08 52.0365 30.32 51.9031 30.56C51.7965 30.7733 51.6765 31 51.5431 31.24C51.4098 31.4667 51.2898 31.6733 51.1831 31.86L49.7631 34H46.9631L50.8431 28.4ZM62.5858 34.32C61.7324 34.32 60.9658 34.1733 60.2858 33.88C59.6191 33.5867 59.0524 33.1867 58.5858 32.68C58.1191 32.1733 57.7591 31.58 57.5058 30.9C57.2658 30.2067 57.1458 29.4667 57.1458 28.68C57.1458 27.88 57.2724 27.14 57.5258 26.46C57.7791 25.7667 58.1391 25.1667 58.6058 24.66C59.0724 24.1533 59.6324 23.76 60.2858 23.48C60.9391 23.1867 61.6591 23.04 62.4458 23.04C63.2324 23.04 63.9258 23.1733 64.5258 23.44C65.1391 23.6933 65.6724 24.06 66.1258 24.54C66.6458 25.1 67.0324 25.7867 67.2858 26.6C67.5391 27.4 67.6591 28.3 67.6458 29.3H59.6658C59.7591 30.22 60.0458 30.9667 60.5258 31.54C61.0191 32.1 61.7124 32.38 62.6058 32.38C63.2191 32.38 63.7191 32.26 64.1058 32.02C64.5058 31.7667 64.7924 31.42 64.9658 30.98H67.4458C67.3124 31.46 67.1058 31.9067 66.8258 32.32C66.5591 32.72 66.2191 33.0733 65.8058 33.38C65.3924 33.6733 64.9124 33.9 64.3658 34.06C63.8324 34.2333 63.2391 34.32 62.5858 34.32ZM62.4458 24.88C61.6058 24.88 60.9658 25.14 60.5258 25.66C60.0858 26.18 59.8124 26.86 59.7058 27.7H65.0258C64.9724 26.82 64.7191 26.1333 64.2658 25.64C63.8258 25.1333 63.2191 24.88 62.4458 24.88ZM68.6641 19.12H71.2241V34H68.6641V19.12Z" fill="white"/>
<circle cx="10" cy="18" r="10" fill="white"/>
</svg>
